<svg width="108" height="108" viewBox="0 0 108 108" fill="none" xmlns="http://www.w3.org/2000/svg">
<path opacity="0.923" fill-rule="evenodd" clip-rule="evenodd" d="M50.7305 12.3398C67.2541 12.3047 83.7774 12.3398 100.301 12.4453C100.471 12.5102 100.612 12.6157 100.723 12.7617C100.896 17.6746 101.002 22.5965 101.039 27.5273C101.145 49.2537 101.18 70.9803 101.145 92.707C102.904 92.672 104.661 92.707 106.418 92.8125C106.981 93.586 106.981 94.3593 106.418 95.1328C95.5927 95.3708 84.7646 95.4762 73.9336 95.4492C64.2305 95.414 54.5273 95.379 44.8242 95.3438C44.003 94.5536 44.003 93.7803 44.8242 93.0234C46.4883 92.7207 48.1758 92.6153 49.8867 92.707C49.8867 89.9648 49.8867 87.2227 49.8867 84.4805C41.1531 84.6001 32.6453 86.0416 24.3633 88.8047C21.6808 89.3236 19.2199 88.8313 16.9805 87.3281C14.1328 85.043 11.2852 82.7577 8.4375 80.4727C7.26971 81.5012 5.96892 81.7474 4.53516 81.2109C4.20846 80.9549 3.96236 80.6385 3.79688 80.2617C2.83743 75.3488 1.92336 70.427 1.05469 65.4961C0.461525 63.0589 1.05918 60.9848 2.84766 59.2734C7.13671 56.6719 11.4258 54.0702 15.7148 51.4688C16.427 50.5666 16.9192 49.5471 17.1914 48.4102C15.9397 46.9294 14.8147 45.3473 13.8164 43.6641C10.1516 43.6571 8.63988 41.8641 9.28125 38.2852C9.73625 37.4813 10.2636 36.743 10.8633 36.0703C9.98722 33.0674 10.0224 30.0793 10.9688 27.1055C12.5104 23.8201 15.0768 21.8865 18.668 21.3047C22.9597 20.4699 26.7214 21.4895 29.9531 24.3633C30.7201 25.5458 31.3179 26.8114 31.7461 28.1602C35.5181 27.9665 38.2955 29.5135 40.0781 32.8008C40.3051 33.7652 40.1294 34.6442 39.5508 35.4375C37.4874 36.2543 35.378 36.9223 33.2227 37.4414C33.2925 40.5445 32.5542 43.4272 31.0078 46.0898C30.5267 46.8077 29.9291 47.4055 29.2148 47.8828C29.7367 49.0961 30.2991 50.2915 30.9023 51.4688C32.4492 52.0313 33.9962 52.5937 35.543 53.1563C35.9237 53.3613 36.2753 53.6074 36.5977 53.8945C36.708 53.0065 36.9541 52.1627 37.3359 51.3633C37.6353 51.1608 37.9517 50.9851 38.2852 50.8359C42.1516 50.7305 46.019 50.6952 49.8867 50.7305C49.754 38.2852 49.7188 25.8398 49.7813 13.3945C49.9975 12.9332 50.3139 12.5817 50.7305 12.3398ZM52.418 15.082C67.6757 15.082 82.9337 15.082 98.1914 15.082C98.3756 40.9565 98.4458 66.8315 98.4024 92.707C83.1446 92.707 67.8867 92.707 52.6289 92.707C52.6289 89.8946 52.6289 87.082 52.6289 84.2695C53.4056 84.2503 54.0736 83.9692 54.6328 83.4258C54.7031 85.5352 54.7735 87.6445 54.8438 89.7539C54.9492 90.1406 55.1954 90.3867 55.582 90.4922C68.8009 90.6329 82.0195 90.6329 95.2383 90.4922C95.7336 90.469 96.05 90.2228 96.1875 89.7539C96.366 65.7764 96.2957 41.7998 95.9766 17.8242C95.8009 17.6484 95.6249 17.4727 95.4492 17.2969C82.0022 17.0875 68.5726 17.1578 55.1602 17.5078C54.9068 17.6982 54.7309 17.9443 54.6328 18.2461C54.5976 19.9688 54.5626 21.6913 54.5273 23.4141C54.7054 32.5188 54.7758 41.6241 54.7383 50.7305C54.0352 50.7305 53.332 50.7305 52.6289 50.7305C52.5443 38.8477 52.4741 26.965 52.418 15.082ZM57.2695 19.9336C69.293 19.9336 81.3164 19.9336 93.3399 19.9336C93.5225 42.5737 93.5928 65.2143 93.5508 87.8555C81.5274 87.8555 69.5039 87.8555 57.4805 87.8555C57.4805 85.4649 57.4805 83.0742 57.4805 80.6836C61.278 80.7188 65.0749 80.6836 68.8711 80.5781C69.3191 80.3415 69.7058 80.025 70.0313 79.6289C70.2753 75.0064 70.3808 70.3658 70.3477 65.707C70.3124 61.2071 70.2774 56.707 70.2422 52.207C70.0665 51.4688 69.6094 51.0117 68.8711 50.8359C65.0749 50.7305 61.278 50.6952 57.4805 50.7305C57.4959 40.4641 57.4256 30.1984 57.2695 19.9336ZM20.3555 23.7305C23.2272 23.524 25.7234 24.3677 27.8438 26.2617C28.1907 26.9203 28.5072 27.5881 28.793 28.2656C25.4905 27.7619 22.7836 28.7816 20.6719 31.3242C19.8224 32.4198 19.0138 33.5448 18.2461 34.6992C16.635 34.9095 15.0178 34.98 13.3945 34.9102C11.833 28.6702 14.1533 24.9438 20.3555 23.7305ZM25.418 31.1133C26.3347 31.0783 27.2487 31.1135 28.1602 31.2188C27.0046 32.5873 25.6688 33.7125 24.1523 34.5938C23.3094 34.7648 22.4657 34.8351 21.6211 34.8047C22.3242 33.8907 23.0274 32.9765 23.7305 32.0625C24.2787 31.6839 24.8413 31.3675 25.418 31.1133ZM32.5898 31.1133C34.525 30.9559 36.0016 31.6942 37.0195 33.3281C35.751 33.8654 34.4501 34.3225 33.1172 34.6992C32.9411 33.5017 32.7651 32.3063 32.5898 31.1133ZM29.8477 33.4336C29.9778 33.457 30.0833 33.5273 30.1641 33.6445C30.6726 36.79 30.4617 39.8839 29.5313 42.9258C27.8893 46.3309 25.1821 47.702 21.4102 47.0391C19.5445 46.5092 18.1031 45.4193 17.0859 43.7695C15.994 41.7614 15.0448 39.6873 14.2383 37.5469C17.9759 37.5353 21.7025 37.3946 25.418 37.125C27.1812 36.241 28.6578 35.0106 29.8477 33.4336ZM12.3398 40.6055C11.8883 40.3407 11.7477 39.9891 11.918 39.5508C12.2239 39.8356 12.3645 40.187 12.3398 40.6055ZM26.6836 49.2539C27.2666 50.3852 27.829 51.5453 28.3711 52.7344C27.6505 55.4401 26.9123 58.147 26.1563 60.8555C25.5064 59.6255 24.8031 58.4301 24.0469 57.2695C22.3242 55.4063 20.6016 53.5429 18.8789 51.6797C19.2109 50.9288 19.5625 50.1905 19.9336 49.4648C21.6654 49.8855 23.4231 49.9909 25.207 49.7813C25.7563 49.699 26.2486 49.5231 26.6836 49.2539ZM84.6914 53.0508C86.1673 52.8749 86.8354 53.5077 86.6953 54.9492C85.9328 55.9877 85.089 56.0579 84.1641 55.1602C83.9238 54.3331 84.0997 53.63 84.6914 53.0508ZM39.5508 53.4727C42.1523 53.4727 44.754 53.4727 47.3555 53.4727C47.3555 54.1757 47.3555 54.879 47.3555 55.582C44.754 55.582 42.1523 55.582 39.5508 55.582C39.5508 54.879 39.5508 54.1757 39.5508 53.4727ZM50.0977 53.4727C52.418 53.4727 54.7383 53.4727 57.0586 53.4727C57.0936 55.6535 57.0586 57.8332 56.9531 60.0117C55.9754 59.1013 54.8503 58.4685 53.5781 58.1133C52.306 58.4685 51.1808 59.1013 50.2031 60.0117C50.0977 57.8332 50.0626 55.6535 50.0977 53.4727ZM59.8008 53.4727C62.4023 53.4727 65.004 53.4727 67.6055 53.4727C67.6055 54.1757 67.6055 54.879 67.6055 55.582C65.004 55.582 62.4023 55.582 59.8008 55.582C59.8008 54.879 59.8008 54.1757 59.8008 53.4727ZM16.7695 53.8945C16.9254 53.8669 17.066 53.9021 17.1914 54C18.2392 55.2591 19.3642 56.4543 20.5664 57.5859C19.5117 58.1133 18.457 58.6406 17.4023 59.168C16.514 57.9186 15.5999 56.6882 14.6602 55.4766C15.4154 54.9963 16.1185 54.4689 16.7695 53.8945ZM30.6914 54.3164C31.32 54.5967 31.9528 54.8779 32.5898 55.1602C32.3038 56.2739 32.0577 57.3991 31.8516 58.5352C31.1875 58.0806 30.5899 57.5532 30.0586 56.9531C30.32 56.0834 30.5309 55.2045 30.6914 54.3164ZM35.1211 56.4258C35.636 56.6487 36.1283 56.9299 36.5977 57.2695C36.8778 63.2249 36.8778 69.1662 36.5977 75.0938C32.0178 76.0805 27.4474 77.1002 22.8867 78.1523C22.6235 78.0384 22.3773 77.8977 22.1484 77.7305C21.2344 76.3946 20.3203 75.0585 19.4063 73.7227C18.0996 70.8573 16.834 67.9746 15.6094 65.0742C14.8785 64.5199 14.1402 64.5199 13.3945 65.0742C13.1743 65.5526 13.1391 66.0447 13.2891 66.5508C14.2177 68.8093 15.1669 71.0594 16.1367 73.3008C12.9199 75.2262 9.61521 76.8433 6.22266 78.1523C5.40114 73.8688 4.59255 69.5798 3.79688 65.2852C3.42875 63.7951 3.74516 62.4942 4.7461 61.3828C7.20704 59.871 9.66796 58.3594 12.1289 56.8477C13.4084 58.4898 14.6389 60.1773 15.8203 61.9102C16.3643 62.2998 16.962 62.4052 17.6133 62.2266C19.2118 61.4448 20.7938 60.6363 22.3594 59.8008C23.4664 61.8043 24.6265 63.7729 25.8398 65.707C26.549 66.0165 27.2171 65.9462 27.8438 65.4961C28.3359 63.6679 28.8282 61.8399 29.3203 60.0117C30.2092 60.8306 31.1584 61.5689 32.168 62.2266C32.897 62.4634 33.4948 62.2877 33.9609 61.6992C34.3885 59.9476 34.7754 58.1896 35.1211 56.4258ZM39.5508 58.3242C42.1523 58.3242 44.754 58.3242 47.3555 58.3242C47.3205 59.943 47.3555 61.5602 47.4609 63.1758C48.0159 64.0467 48.7542 64.2225 49.6758 63.7031C50.9766 62.8242 52.2773 61.9454 53.5781 61.0664C55.0015 62.0418 56.4429 62.991 57.9024 63.9141C58.7136 64.1581 59.3112 63.9122 59.6953 63.1758C59.8008 61.5602 59.8358 59.943 59.8008 58.3242C62.4023 58.3242 65.004 58.3242 67.6055 58.3242C67.6055 64.8633 67.6055 71.4023 67.6055 77.9414C61.2035 77.9256 54.8052 77.9608 48.4102 78.0469C49.4393 75.3644 48.5603 73.7121 45.7734 73.0898C43.7046 73.5529 41.6304 73.9747 39.5508 74.3555C39.5508 69.0118 39.5508 63.6679 39.5508 58.3242ZM17.4023 75.832C18.4156 77.1649 19.4 78.536 20.3555 79.9453C21.0973 80.518 21.9411 80.8344 22.8867 80.8945C30.5378 79.2731 38.1668 77.5856 45.7734 75.832C46.1282 76.12 46.1635 76.4364 45.8789 76.7812C43.2686 77.3812 40.6671 78.014 38.0742 78.6797C37.4543 79.5272 37.5247 80.3007 38.2852 81C42.7186 81.081 47.1483 80.9755 51.5742 80.6836C51.9259 80.7188 52.2773 80.7538 52.6289 80.7891C52.7253 80.8764 52.7958 80.9819 52.8398 81.1055C52.511 81.4495 52.0891 81.6252 51.5742 81.6328C42.1244 81.6569 32.9134 83.1334 23.9414 86.0625C22.1282 86.4082 20.4407 86.127 18.8789 85.2188C16.3477 83.1796 13.8164 81.1407 11.2852 79.1016C13.3372 78.0057 15.3763 76.9158 17.4023 75.832Z" fill="#242464"/>
<path opacity="0.89" fill-rule="evenodd" clip-rule="evenodd" d="M25.8398 41.6602C27.385 41.553 27.9826 42.2563 27.6328 43.7695C25.3275 46.1884 22.7962 46.4697 20.0391 44.6133C19.7131 43.4344 20.135 42.7313 21.3047 42.5039C22.0259 42.7634 22.7642 42.9743 23.5195 43.1367C24.478 42.9053 25.2515 42.4132 25.8398 41.6602Z" fill="#242464"/>
<path opacity="0.913" fill-rule="evenodd" clip-rule="evenodd" d="M84.0586 50.3086C86.7816 49.8232 88.5746 50.8779 89.4375 53.4726C89.5805 57.056 87.8578 58.7083 84.2695 58.4297C81.8047 57.4737 80.8555 55.6807 81.4219 53.0508C81.9182 51.7461 82.7972 50.8321 84.0586 50.3086ZM84.6914 53.0508C84.0997 53.63 83.9238 54.3331 84.1641 55.1601C85.089 56.0579 85.9328 55.9876 86.6953 54.9492C86.8354 53.5077 86.1673 52.8748 84.6914 53.0508Z" fill="#242464"/>
<path opacity="0.899" fill-rule="evenodd" clip-rule="evenodd" d="M56.8477 68.2383C59.5204 68.2031 62.1924 68.2383 64.8633 68.3438C65.6632 68.7768 65.9091 69.4447 65.6016 70.3477C65.4961 70.5938 65.3204 70.7696 65.0742 70.875C62.1913 71.0157 59.3087 71.0157 56.4258 70.875C55.7162 70.2367 55.6107 69.4985 56.1094 68.6602C56.384 68.5368 56.6302 68.3963 56.8477 68.2383Z" fill="#242464"/>
<path opacity="0.903" fill-rule="evenodd" clip-rule="evenodd" d="M53.4727 72.4571C57.3404 72.4218 61.2077 72.4571 65.0742 72.5625C65.5625 72.8359 65.7735 73.2578 65.707 73.8282C65.765 74.4736 65.4839 74.8955 64.8633 75.0938C61.2071 75.2345 57.5507 75.2345 53.8945 75.0938C52.6884 74.3829 52.5477 73.5039 53.4727 72.4571Z" fill="#242464"/>
</svg>
