<svg width="87" height="87" viewBox="0 0 87 87" fill="none" xmlns="http://www.w3.org/2000/svg">
<path opacity="0.96" fill-rule="evenodd" clip-rule="evenodd" d="M39.6768 1.27441C54.1861 0.415114 66.2789 5.34285 75.9551 16.0576C76.0117 14.0752 76.0684 12.0928 76.125 10.1103C76.21 9.79883 76.4083 9.60058 76.7198 9.51562C77.3084 9.37686 77.8749 9.43349 78.419 9.68554C78.5253 9.81305 78.6103 9.95466 78.6739 10.1103C78.7022 11.9228 78.7304 13.7353 78.7588 15.5478C80.4015 21.2686 78.3624 23.3077 72.6416 21.665C70.7001 21.6898 68.7742 21.6049 66.8643 21.4102C66.5365 20.8569 66.4515 20.2622 66.6094 19.626C66.6944 19.3145 66.8927 19.1162 67.2041 19.0312C69.6396 18.9747 72.0753 18.9179 74.5108 18.8613C64.6344 7.47078 52.1735 2.71296 37.128 4.58788C24.8283 6.86555 15.511 13.3509 9.17581 24.0439C5.77277 30.2926 4.01691 36.9764 3.90823 44.0947C3.82327 44.4062 3.62502 44.6045 3.31351 44.6894C2.72484 44.8283 2.15844 44.7715 1.61429 44.5195C1.02488 36.4822 2.80906 28.9773 6.96683 22.0049C14.5305 9.87976 25.4338 2.9696 39.6768 1.27441Z" fill="#242464"/>
<path opacity="0.951" fill-rule="evenodd" clip-rule="evenodd" d="M34.5791 16.2276C36.0173 16.0122 37.3201 16.3238 38.4873 17.1621C41.9527 20.2146 44.4166 23.9245 45.8789 28.292C46.2794 30.2565 46.3928 32.239 46.2188 34.2393C45.8664 36.0382 45.7532 37.8508 45.8789 39.6768C46.3658 40.6569 47.1588 41.1667 48.2578 41.2061C54.9239 39.3784 60.8995 40.6528 66.1846 45.0293C67.8128 46.3172 69.2004 47.8182 70.3477 49.5322C70.7621 50.884 70.649 52.1868 70.0078 53.4405C64.4854 58.9629 58.9629 64.4854 53.4405 70.0078C51.6692 70.889 49.97 70.7759 48.3428 69.668C44.8774 66.6155 42.4135 62.9056 40.9512 58.5381C40.5507 56.5736 40.4374 54.5912 40.6114 52.5908C40.9495 50.7907 41.0628 48.9781 40.9512 47.1533C40.4644 46.1732 39.6713 45.6635 38.5723 45.624C31.9063 47.4517 25.9306 46.1773 20.6455 41.8008C19.0173 40.513 17.6298 39.0119 16.4824 37.2979C16.0679 35.9461 16.1812 34.6434 16.8223 33.3897C22.3448 27.8672 27.8672 22.3447 33.3897 16.8223C33.8017 16.6162 34.1983 16.418 34.5791 16.2276ZM35.2588 19.1162C35.6032 19.0887 35.9431 19.1171 36.2783 19.2012C38.9315 21.4559 40.9988 24.1463 42.4805 27.2725C43.5325 30.3321 43.7024 33.4473 42.9903 36.6182C42.3389 42.0841 44.7461 44.4912 50.2119 43.8399C54.931 42.6812 59.2356 43.5308 63.126 46.3887C64.729 47.6514 66.2301 49.0391 67.6289 50.5518C67.7572 51.0281 67.7006 51.4813 67.459 51.9112C62.215 57.2119 56.9191 62.4511 51.5713 67.6289C51.2315 67.7423 50.8916 67.7423 50.5518 67.6289C47.8986 65.3742 45.8314 62.6839 44.3496 59.5576C43.2976 56.498 43.1277 53.3829 43.8399 50.2119C44.4912 44.7461 42.0841 42.3389 36.6182 42.9903C31.8991 44.149 27.5945 43.2993 23.7041 40.4414C22.1011 39.1787 20.6 37.791 19.2012 36.2783C19.0729 35.8021 19.1295 35.3489 19.3711 34.919C24.6492 29.6125 29.945 24.3449 35.2588 19.1162ZM37.8076 31.8604C37.9203 32.1956 37.9769 32.5637 37.9776 32.9649C37.7587 34.4604 37.5888 35.9614 37.4678 37.4678C35.8544 37.6489 34.2401 37.8189 32.625 37.9776C31.3163 38.0539 30.0985 37.7706 28.9717 37.128C29.5627 36.2253 30.2991 35.4607 31.1807 34.834C32.5975 34.1681 34.07 33.6583 35.5987 33.3047C36.4624 32.9881 37.1986 32.5068 37.8076 31.8604ZM54.1201 53.4405C55.4807 53.4122 56.8401 53.4405 58.1983 53.5254C56.6406 55.0831 55.0831 56.6406 53.5254 58.1983C53.4121 56.8389 53.4121 55.4795 53.5254 54.1201C53.6427 53.8058 53.8408 53.5791 54.1201 53.4405Z" fill="#30306C"/>
<path opacity="0.952" fill-rule="evenodd" clip-rule="evenodd" d="M38.1474 27.1025C38.8786 26.9829 39.4733 27.2096 39.9316 27.7822C40.7833 29.9169 41.0665 32.1259 40.7812 34.4092C40.4764 35.9232 40.3065 37.4525 40.2715 38.9971C40.1865 39.7617 39.7617 40.1865 38.997 40.2715C37.5073 40.299 36.0346 40.4689 34.5791 40.7812C31.6797 41.2094 28.961 40.6997 26.4228 39.2519C25.677 38.4978 25.5355 37.62 25.998 36.6182C26.9202 34.5748 28.3645 33.0172 30.331 31.9453C31.9653 31.3528 33.6078 30.7863 35.2588 30.2461C36.2063 29.1627 37.1692 28.1148 38.1474 27.1025ZM37.8076 31.8603C37.1986 32.5067 36.4623 32.9881 35.5986 33.3047C34.07 33.6583 32.5974 34.168 31.1806 34.834C30.2991 35.4606 29.5626 36.2253 28.9717 37.1279C30.0984 37.7706 31.3162 38.0538 32.625 37.9775C34.2401 37.8188 35.8543 37.6489 37.4678 37.4678C37.5887 35.9614 37.7587 34.4603 37.9775 32.9648C37.9768 32.5636 37.9203 32.1956 37.8076 31.8603Z" fill="#242464"/>
<path opacity="0.958" fill-rule="evenodd" clip-rule="evenodd" d="M83.5166 42.0556C83.9732 42.0278 84.4263 42.0562 84.876 42.1406C85.1874 42.2256 85.3857 42.4239 85.4707 42.7353C85.4525 57.8676 79.3069 69.7905 67.0342 78.5039C54.3367 86.4459 40.9697 87.7487 26.9326 82.4121C20.656 79.7985 15.3034 75.9187 10.875 70.7724C10.8183 72.7549 10.7617 74.7372 10.7051 76.7197C10.4453 77.2322 10.0205 77.4587 9.43064 77.3994C8.84077 77.4587 8.41596 77.2322 8.15622 76.7197C7.99007 72.9663 8.04672 69.228 8.32614 65.5049C8.45365 65.3985 8.59527 65.3135 8.75095 65.25C12.3759 65.1366 16.001 65.1366 19.6259 65.25C20.1384 65.5098 20.3649 65.9346 20.3056 66.5244C20.3649 67.1142 20.1384 67.539 19.6259 67.7988C17.1905 67.8554 14.7548 67.9121 12.3193 67.9687C22.7537 79.9249 35.8377 84.5696 51.5713 81.9023C64.5699 78.7567 73.8873 71.1386 79.5234 59.0478C81.6918 53.7001 82.8812 48.1492 83.0918 42.3955C83.2608 42.2993 83.4024 42.186 83.5166 42.0556Z" fill="#242464"/>
<path opacity="0.916" fill-rule="evenodd" clip-rule="evenodd" d="M45.624 44.9443C47.5543 44.8101 48.1207 45.6313 47.3232 47.4082C46.0171 48.0216 45.1674 47.6534 44.7744 46.3037C44.8922 45.7243 45.1754 45.2711 45.624 44.9443Z" fill="#30306C"/>
<path opacity="0.936" fill-rule="evenodd" clip-rule="evenodd" d="M49.0225 47.6631C50.3509 47.8252 50.8325 48.5615 50.4668 49.8721C50.3818 50.1835 50.1835 50.3818 49.8721 50.4668C48.6636 50.8262 47.9273 50.4014 47.6631 49.1924C47.7722 48.3484 48.2252 47.8386 49.0225 47.6631Z" fill="#30306C"/>
<path opacity="0.969" fill-rule="evenodd" clip-rule="evenodd" d="M53.9502 50.5518C56.6129 50.5234 59.275 50.5518 61.9365 50.6367C62.8984 50.946 63.2667 51.5973 63.041 52.5908C59.7324 56.0695 56.3622 59.4961 52.9306 62.8711C51.8245 63.3797 51.0598 63.0682 50.6367 61.9365C50.4814 58.9279 50.538 55.9261 50.8066 52.9307C51.4477 51.5788 52.4956 50.7858 53.9502 50.5518ZM54.1201 53.4405C53.8407 53.5791 53.6426 53.8058 53.5254 54.1201C53.412 55.4795 53.412 56.8389 53.5254 58.1983C55.083 56.6406 56.6405 55.0831 58.1982 53.5254C56.84 53.4405 55.4807 53.4122 54.1201 53.4405Z" fill="#30306C"/>
</svg>
