<svg width="96" height="96" viewBox="0 0 96 96" fill="none" xmlns="http://www.w3.org/2000/svg">
<g clip-path="url(#clip0_64_261)">
<path opacity="0.938" fill-rule="evenodd" clip-rule="evenodd" d="M34.9687 0.656223C39.156 0.108337 42.1247 1.73334 43.875 5.53122C44.0537 6.08094 44.1474 6.64344 44.1562 7.21872C45.6626 7.06147 47.1626 6.84271 48.6562 6.56247C51.0231 6.21175 52.7106 7.11802 53.7187 9.28122C58.4741 9.3857 63.2241 9.54194 67.9687 9.74997C70.5137 10.4826 72.1074 12.1388 72.75 14.7187C72.8124 25.2187 72.8751 35.7187 72.9375 46.2187C80.9799 50.4902 84.4174 57.1775 83.25 66.2812C82.8304 68.3535 82.0804 70.2909 81 72.0937C80.8749 72.5312 80.8749 72.9688 81 73.4062C82.1096 73.2564 83.1409 73.5377 84.0937 74.25C87.4374 77.5937 90.7813 80.9375 94.125 84.2812C95.184 85.9037 95.4339 87.6538 94.875 89.5312C93.4879 92.208 91.3316 93.1142 88.4062 92.25C88.0312 92.0625 87.6562 91.875 87.2812 91.6875C83.7501 88.1563 80.2187 84.6249 76.6875 81.0937C76.1376 80.2102 75.9814 79.2727 76.2187 78.2812C75.9506 78.296 75.7005 78.2336 75.4687 78.0937C74.6055 78.4871 73.7617 78.9245 72.9375 79.4062C72.9285 83.1658 72.8034 86.9158 72.5625 90.6562C71.7472 92.9568 70.1535 94.4255 67.7812 95.0625C47.0938 95.1875 26.4062 95.1875 5.71874 95.0625C2.46119 94.1445 0.742443 91.9882 0.56249 88.5937C0.377915 63.9024 0.440414 39.215 0.74999 14.5312C1.46874 12.0625 3.06248 10.4687 5.53124 9.74997C10.2741 9.47952 15.0241 9.38577 19.7812 9.46872C20.0936 8.13183 20.9062 7.22559 22.2187 6.74997C22.7687 6.58246 23.3312 6.48871 23.9062 6.46872C25.4782 6.6578 27.0407 6.90779 28.5937 7.21872C28.7812 7.15623 28.9687 7.09372 29.1562 7.03122C29.8104 3.71461 31.7479 1.58961 34.9687 0.656223ZM36.6562 3.28122C40.1409 3.92332 41.7971 6.04833 41.625 9.65622C41.8438 9.87498 42.0624 10.0937 42.2812 10.3125C44.6976 10.1027 47.1039 9.75892 49.5 9.28122C50.4555 9.35095 51.018 9.85096 51.1875 10.7812C51.2812 12.5926 51.3124 14.4051 51.2812 16.2187C41.5937 16.2187 31.9063 16.2187 22.2187 16.2187C22.1876 14.3427 22.2187 12.4677 22.3125 10.5937C22.5319 9.78074 23.0632 9.34325 23.9062 9.28122C26.2704 9.76079 28.6455 10.1045 31.0312 10.3125C31.4376 10.1562 31.7188 9.87498 31.875 9.46872C31.6802 5.96995 33.2739 3.90745 36.6562 3.28122ZM6.84374 12.2812C11.0312 12.2812 15.2187 12.2812 19.4062 12.2812C19.4062 13.1562 19.4062 14.0312 19.4062 14.9062C15.0933 14.875 10.7808 14.9062 6.46874 15C6.3125 15.1562 6.15623 15.3125 5.99999 15.4687C5.87498 33.8437 5.87498 52.2187 5.99999 70.5937C6.27614 71.396 6.65114 72.146 7.12499 72.8437C12.4062 78.125 17.6875 83.4062 22.9687 88.6875C23.6664 89.1613 24.4164 89.5363 25.2187 89.8125C39.0937 89.9375 52.9687 89.9375 66.8437 89.8125C67.1874 89.7187 67.4062 89.4999 67.5 89.1562C67.5937 86.3445 67.6251 83.532 67.5937 80.7187C68.4212 80.6837 69.2336 80.5586 70.0312 80.3437C70.0626 83.4069 70.0312 86.4693 69.9375 89.5312C69.3855 91.3327 68.1667 92.3013 66.2812 92.4375C46.5937 92.5625 26.9062 92.5625 7.21874 92.4375C4.93748 92.1562 3.65624 90.875 3.37499 88.5937C3.24998 64.4687 3.24998 40.3438 3.37499 16.2187C3.64463 14.1063 4.80089 12.7938 6.84374 12.2812ZM54.0937 12.2812C58.2817 12.25 62.4692 12.2812 66.6562 12.375C68.3351 12.6786 69.4288 13.6474 69.9375 15.2812C70.0626 25.2812 70.0626 35.2813 69.9375 45.2812C69.2477 45.0215 68.529 44.8653 67.7812 44.8125C67.6254 35.1069 67.5317 25.3882 67.5 15.6562C67.4062 15.3125 67.1874 15.0937 66.8437 15C62.5942 14.9062 58.3442 14.875 54.0937 14.9062C54.0937 14.0312 54.0937 13.1562 54.0937 12.2812ZM8.71874 17.5312C12.2812 17.5312 15.8437 17.5312 19.4062 17.5312C19.4145 18.2043 19.7271 18.673 20.3437 18.9375C31.2187 19.0625 42.0937 19.0625 52.9687 18.9375C53.6019 18.7406 53.9769 18.3031 54.0937 17.625C57.6557 17.5312 61.2182 17.5 64.7812 17.5312C64.7812 26.5937 64.7812 35.6563 64.7812 44.7187C61.7664 44.7693 58.9539 45.5505 56.3437 47.0625C51.2649 47.0657 46.2024 47.1907 41.1562 47.4375C40.5157 48.462 40.7032 49.2744 41.7187 49.875C45.3437 49.9374 48.9688 50 52.5937 50.0625C51.2169 51.4104 50.0919 52.9417 49.2187 54.6562C37.5317 54.8124 25.8442 54.9062 14.1562 54.9375C13.1077 55.9063 13.1702 56.7812 14.3437 57.5625C25.5937 57.6249 36.8437 57.6875 48.0937 57.75C47.6087 59.3006 47.3587 60.8943 47.3437 62.5312C36.3435 62.4999 25.3436 62.5312 14.3437 62.625C13.1702 63.4063 13.1077 64.2812 14.1562 65.25C25.281 65.3437 36.4061 65.375 47.5312 65.3437C47.7056 66.9787 48.1431 68.5412 48.8437 70.0312C42.6572 70.1874 36.4697 70.2812 30.2812 70.3125C29.6481 70.5093 29.2731 70.9468 29.1562 71.625C29.2035 72.254 29.5161 72.6915 30.0937 72.9375C36.9062 72.9999 43.7188 73.0625 50.5312 73.125C51.8437 74.9375 53.4062 76.5 55.2187 77.8125C46.9063 77.8749 38.5937 77.9375 30.2812 78C29.0368 78.729 28.9117 79.6038 29.9062 80.625C39.7187 80.75 49.5313 80.75 59.3437 80.625C59.5367 80.3066 59.8179 80.1502 60.1875 80.1562C61.6907 80.5824 63.222 80.8323 64.7812 80.9062C64.7812 82.9687 64.7812 85.0312 64.7812 87.0937C51.7811 87.125 38.7812 87.0937 25.7812 87C24.5962 86.4401 23.8149 85.5339 23.4375 84.2812C23.3751 81.3437 23.3124 78.4063 23.25 75.4687C22.7812 74 21.8124 73.0312 20.3437 72.5625C17.4062 72.5 14.4687 72.4374 11.5312 72.375C10.2786 71.9975 9.37236 71.2162 8.81249 70.0312C8.71874 52.5313 8.68748 35.0313 8.71874 17.5312ZM16.2187 25.4062C17.7812 25.4062 19.3438 25.4062 20.9062 25.4062C20.8207 27.5505 20.9145 29.6754 21.1875 31.7812C21.4071 32.0424 21.6883 32.1988 22.0312 32.25C24.2812 32.375 26.5312 32.375 28.7812 32.25C29.1161 32.1028 29.3974 31.8842 29.625 31.5937C29.7187 29.5322 29.7501 27.4697 29.7187 25.4062C31.3438 25.4062 32.9687 25.4062 34.5937 25.4062C34.5937 31.5313 34.5937 37.6562 34.5937 43.7812C28.4687 43.7812 22.3438 43.7812 16.2187 43.7812C16.2187 37.6562 16.2187 31.5313 16.2187 25.4062ZM23.7187 25.4062C24.7813 25.4062 25.8437 25.4062 26.9062 25.4062C26.9062 26.7812 26.9062 28.1563 26.9062 29.5312C25.8437 29.5312 24.7813 29.5312 23.7187 29.5312C23.7187 28.1563 23.7187 26.7812 23.7187 25.4062ZM63.2812 47.5312C69.8143 47.0327 74.9081 49.4702 78.5625 54.8437C81.5355 60.4745 81.4104 66.0369 78.1875 71.5312C77.9726 72.8027 78.1288 74.0214 78.6562 75.1875C78.5436 75.4884 78.3561 75.7383 78.0937 75.9375C77.2534 75.6695 76.3785 75.4507 75.4687 75.2812C73.1377 76.2148 70.7627 77.0585 68.3437 77.8125C60.354 78.74 54.6352 75.5837 51.1875 68.3437C48.9274 61.3143 50.5837 55.4081 56.1562 50.625C58.3162 49.0625 60.6911 48.0313 63.2812 47.5312ZM13.7812 75.4687C15.7485 75.2514 17.7485 75.2203 19.7812 75.375C20.0001 75.5938 20.2187 75.8124 20.4375 76.0312C20.5626 78.0313 20.5626 80.0312 20.4375 82.0312C18.2435 79.8058 16.0247 77.6184 13.7812 75.4687ZM81.6562 76.2187C85.2028 79.4837 88.6716 82.8587 92.0625 86.3437C92.7591 88.6458 91.9153 89.7395 89.5312 89.625C85.9487 86.4176 82.4799 83.0739 79.125 79.5937C78.9999 79.3438 78.9999 79.0937 79.125 78.8437C80.0068 77.9934 80.8506 77.1183 81.6562 76.2187Z" fill="#242464"/>
<path opacity="0.887" fill-rule="evenodd" clip-rule="evenodd" d="M36.0937 5.90625C38.4656 5.96098 39.1843 7.08598 38.25 9.28125C37.5598 9.81744 36.7785 9.97371 35.9062 9.75C34.8545 9.13558 34.5109 8.22932 34.875 7.03125C35.1442 6.47964 35.5505 6.10464 36.0937 5.90625Z" fill="#242464"/>
<path opacity="0.933" fill-rule="evenodd" clip-rule="evenodd" d="M14.3438 22.5938C21.6564 22.5625 28.9689 22.5938 36.2813 22.6875C36.6242 22.7387 36.9054 22.8951 37.125 23.1563C37.4342 30.5826 37.4966 38.0202 37.3125 45.4688C37.2613 45.8117 37.1049 46.093 36.8438 46.3125C29.2971 46.6228 21.7344 46.6853 14.1563 46.5C13.9375 46.2812 13.7188 46.0626 13.5 45.8438C13.375 38.3438 13.375 30.8438 13.5 23.3438C13.7619 23.0494 14.0432 22.7993 14.3438 22.5938Z" fill="#242464"/>
<path opacity="0.924" fill-rule="evenodd" clip-rule="evenodd" d="M41.3438 24.0938C47.3441 24.0625 53.3441 24.0938 59.3438 24.1875C60.0984 24.7733 60.2546 25.4922 59.8125 26.3438C59.5035 26.572 59.1598 26.7282 58.7813 26.8125C53.1563 26.9376 47.5313 26.9376 41.9063 26.8125C40.8454 26.4696 40.5015 25.7507 40.875 24.6563C41.0709 24.4926 41.2271 24.3051 41.3438 24.0938Z" fill="#242464"/>
<path opacity="0.923" fill-rule="evenodd" clip-rule="evenodd" d="M41.3438 31.7813C47.3441 31.75 53.3441 31.7813 59.3438 31.875C60.4279 32.9505 60.303 33.8254 58.9688 34.5C53.2187 34.6251 47.4688 34.6251 41.7188 34.5C40.833 34.0435 40.5518 33.3246 40.875 32.3438C41.0709 32.1801 41.2271 31.9926 41.3438 31.7813Z" fill="#242464"/>
<path opacity="0.923" fill-rule="evenodd" clip-rule="evenodd" d="M41.5313 39.4688C47.469 39.4375 53.4066 39.4688 59.3438 39.5625C60.3866 40.5306 60.3242 41.4055 59.1563 42.1875C53.3438 42.3126 47.5313 42.3126 41.7188 42.1875C40.7458 41.6413 40.527 40.86 41.0625 39.8438C41.2491 39.7377 41.4053 39.6126 41.5313 39.4688Z" fill="#242464"/>
<path opacity="0.922" fill-rule="evenodd" clip-rule="evenodd" d="M63.4687 49.5937C69.9801 49.082 74.6989 51.707 77.625 57.4687C79.9273 63.9806 78.396 69.3868 73.0312 73.6875C67.9687 76.8125 62.9062 76.8125 57.8437 73.6875C52.2787 69.0834 50.8725 63.4273 53.625 56.7187C55.8319 52.8551 59.1131 50.48 63.4687 49.5937ZM63.8437 52.4062C61.374 52.9022 59.2804 54.0896 57.5625 55.9687C53.7639 61.4636 54.2951 66.4948 59.1562 71.0625C63.7267 74.0764 68.1643 73.8889 72.4687 70.5C76.0386 66.7749 76.7572 62.5562 74.625 57.8437C72.1753 53.8219 68.5815 52.0095 63.8437 52.4062Z" fill="#242464"/>
</g>
<defs>
<clipPath id="clip0_64_261">
<rect width="96" height="96" rx="8" fill="white"/>
</clipPath>
</defs>
</svg>
