<svg width="102" height="102" viewBox="0 0 102 102" fill="none" xmlns="http://www.w3.org/2000/svg">
<g clip-path="url(#clip0_64_245)">
<path fill-rule="evenodd" clip-rule="evenodd" d="M17.9859 93.5747C17.3884 93.5747 16.7909 93.2759 16.6116 92.6186C16.3726 91.8418 16.7311 91.0053 17.5677 90.7663C27.8453 87.1213 33.283 88.1371 39.0791 89.2724C48.5202 91.1248 59.2162 93.1564 96.8014 71.4657C98.6538 70.3902 99.0721 68.8366 99.0721 67.761C99.0721 65.9684 98.116 64.2355 96.6221 63.399C95.7258 62.8612 94.1125 62.4429 92.2003 63.5782C89.6309 65.0721 87.3005 66.5062 85.0299 67.8805C68.1793 77.9192 58.0808 84.0738 34.5378 72.6011C33.8207 72.3023 33.522 71.406 33.8805 70.6889C34.1793 69.9719 35.1353 69.7329 35.7926 70.0317C44.3374 74.2144 50.8506 75.9473 56.6467 75.9473H56.7663C56.8858 75.8278 57.065 75.8278 57.2443 75.8278H57.304C58.9174 75.8278 59.8137 74.5132 60.0527 73.2584C60.1722 72.7206 60.2917 70.8085 58.0808 70.0317L41.5888 64.7733C34.1195 62.3234 30.2953 64.1758 24.0808 67.2232C22.4675 68 20.6151 68.8963 18.5237 69.7926C17.8067 70.1512 16.9701 69.7926 16.6116 69.0756C16.3128 68.2988 16.6116 67.4622 17.3884 67.1635C19.3603 66.3269 21.0931 65.4904 22.7663 64.6538C29.2197 61.6063 33.8805 59.2759 42.4253 62.0246L58.9771 67.2232C62.3234 68.2988 63.3989 71.2267 62.9807 73.6766C62.8612 74.2144 62.7416 74.7522 62.4429 75.29C69.2548 73.8559 75.4692 70.1512 83.4165 65.3111C85.7469 63.9367 88.0773 62.5027 90.7065 61.0088C93.1564 59.6345 95.7856 59.6345 97.9965 60.8295C100.446 62.2636 102 64.8928 102 67.761C102 70.3304 100.566 72.6011 98.1757 74.0352C59.754 96.2636 48.4605 94.1125 38.5413 92.2004C33.1037 91.1248 27.9649 90.1687 18.464 93.5747C18.2847 93.5747 18.1054 93.5747 17.9859 93.5747Z" fill="#242464"/>
<path fill-rule="evenodd" clip-rule="evenodd" d="M15.6555 95.9051H3.82425C1.61336 95.9051 0 94.232 0 92.0809V68.4781C0 66.3269 1.73286 64.6538 3.82425 64.6538H15.6555C17.7469 64.6538 19.4798 66.3867 19.4798 68.4781V92.0809C19.3603 94.1723 17.7469 95.9051 15.6555 95.9051ZM3.82425 67.5818C3.28647 67.5818 2.86819 68 2.86819 68.4781V92.0809C2.86819 92.6187 3.28647 93.0369 3.82425 93.0369H15.6555C16.0738 93.0369 16.5518 92.6187 16.5518 92.0809V68.4781C16.5518 68 16.1336 67.5818 15.6555 67.5818H3.82425Z" fill="#242464"/>
<path fill-rule="evenodd" clip-rule="evenodd" d="M9.73991 79.2337C7.29 79.2337 5.19861 77.2021 5.19861 74.6924C5.19861 72.1828 7.29 70.1511 9.73991 70.1511C12.2496 70.1511 14.341 72.1828 14.341 74.6924C14.341 77.2021 12.2496 79.2337 9.73991 79.2337ZM9.73991 73.1388C8.8436 73.1388 8.12655 73.8559 8.12655 74.7522C8.12655 75.7082 8.8436 76.4253 9.73991 76.4253C10.696 76.4253 11.413 75.7082 11.413 74.7522C11.413 73.8559 10.696 73.1388 9.73991 73.1388Z" fill="#242464"/>
<path fill-rule="evenodd" clip-rule="evenodd" d="M58.0808 57.9613C57.8418 57.9613 57.6626 57.9016 57.4833 57.7821C57.4236 57.7223 57.304 57.7223 57.2443 57.6028C39.6766 44.696 30.2953 29.7575 32.1476 17.8664C32.9842 12.4886 36.0316 8.42531 40.6924 6.81195C45.9508 5.01933 52.1652 6.63269 57.9016 11.5325C63.638 6.63269 69.9121 4.89982 75.29 6.81195C79.9508 8.48506 83.1775 12.5483 84.0141 17.9859C85.8664 29.9367 76.4851 44.7557 59.0967 57.6028C58.9772 57.7223 58.9174 57.7223 58.7979 57.7821C58.5589 57.9613 58.3199 57.9613 58.0808 57.9613ZM44.9947 9.0826C43.7997 9.0826 42.6643 9.20211 41.5888 9.62039C38.0035 10.8752 35.6134 14.0422 34.9561 18.3445C34.3585 22.4077 34.1793 36.8084 58.0808 54.7346C81.8032 36.9279 81.6239 22.4675 81.0264 18.5237C80.3691 14.1019 77.8594 10.8752 74.2144 9.62039C69.6134 8.00703 63.9367 9.79965 58.7979 14.6397C58.7381 14.6995 58.5589 14.7592 58.3796 14.8787C58.2601 14.9385 58.0211 15.058 57.7223 15.058C57.6028 15.058 57.304 14.9385 57.1845 14.8787C57.0053 14.7592 56.8858 14.6995 56.7663 14.6397C52.942 10.9947 48.819 9.0826 44.9947 9.0826Z" fill="#242464"/>
<path fill-rule="evenodd" clip-rule="evenodd" d="M39.1986 28.1441C38.5413 28.1441 37.9438 27.6063 37.7645 26.949C36.7487 21.9297 37.884 17.2689 40.7522 14.4604C43.2619 11.9508 46.7874 11.0545 50.6116 11.891C51.3884 12.0703 51.8665 12.7873 51.6872 13.6239C51.5079 14.3409 50.7909 14.8787 49.9543 14.6995C47.1459 14.0422 44.5765 14.6995 42.7241 16.4323C40.5132 18.5835 39.7364 22.2285 40.573 26.2917C40.7522 27.0685 40.2742 27.8453 39.4376 28.0246C39.4376 28.1441 39.2584 28.1441 39.1986 28.1441Z" fill="#242464"/>
<path fill-rule="evenodd" clip-rule="evenodd" d="M62.8014 47.6239C62.3832 47.6239 61.9649 47.4446 61.7259 47.0861C61.2478 46.5483 61.2478 45.5922 61.9051 45.0545C66.4464 41.0509 69.9122 36.9877 72.0633 32.9244C72.4816 32.2671 73.3181 31.9086 74.0949 32.3269C74.812 32.7451 75.051 33.5817 74.6327 34.3585C72.3023 38.6608 68.6573 42.9631 63.8173 47.2056C63.4587 47.5044 63.16 47.6239 62.8014 47.6239Z" fill="#242464"/>
</g>
<defs>
<clipPath id="clip0_64_245">
<rect width="102" height="102" rx="8" fill="white"/>
</clipPath>
</defs>
</svg>
