<svg width="94" height="94" viewBox="0 0 94 94" fill="none" xmlns="http://www.w3.org/2000/svg">
<path opacity="0.898" d="M37.8991 4.43197L37.875 4.43323L37.8516 4.43907C35.3475 5.06396 33.3274 6.17266 31.8051 7.77342C30.2829 9.3741 29.2718 11.4527 28.7627 13.9958L28.7602 14.0082L28.759 14.0207C28.5195 16.478 28.8571 18.6613 29.7834 20.561C30.6464 22.3308 32.0134 23.8404 33.8729 25.0922C33.0539 25.3997 32.2292 25.7089 31.3987 26.0198L31.3884 26.0236L31.3784 26.0284C27.0896 28.0803 23.8448 30.8173 21.6584 34.2444C19.4719 37.6714 18.3537 41.7728 18.293 46.5378L18.2916 46.6432L18.3662 46.7178L18.8252 47.1768L18.8981 47.2497L19.0012 47.25C29.5422 47.2805 40.0824 47.3716 50.6223 47.5234C52.4448 50.484 54.6922 52.6403 57.3678 53.9781C60.0788 55.3336 63.2126 55.8404 66.7595 55.5106L66.769 55.5098L66.7784 55.5081C70.1361 54.935 72.9343 53.6944 75.162 51.7784C77.3896 49.8623 79.0338 47.2818 80.1007 44.049L80.1045 44.0374L80.1072 44.0255C80.9739 40.165 80.8159 36.6947 79.6162 33.6254C78.4165 30.5559 76.1834 27.9088 72.9364 25.6806L72.9221 25.6708L72.9065 25.663C69.2047 23.8157 65.6526 23.1233 62.2571 23.6062C58.9165 24.0812 55.7509 25.6904 52.761 28.4135C50.6303 26.9572 48.3186 25.8641 45.8267 25.1347C49.2621 22.8949 51.0558 19.6823 51.1971 15.5221L51.1978 15.5019L51.1952 15.4818C50.7001 11.6302 49.3496 8.75398 47.1132 6.89556C44.877 5.03729 41.7936 4.22871 37.8991 4.43197ZM49.5238 33.7752L49.5209 33.7821L49.5184 33.7893C48.2346 37.3988 48.1681 41.0202 49.3193 44.645C39.7957 44.822 30.2714 44.8815 20.7464 44.8239C21.5469 37.1077 25.4595 31.6156 32.5028 28.3198C34.6301 27.4911 36.8045 26.9777 39.0264 26.7791C43.461 26.7233 47.4775 27.9507 51.0831 30.463C50.5335 31.519 50.0137 32.6232 49.5238 33.7752ZM38.1483 6.947C40.4835 6.70303 42.4624 7.04748 44.0999 7.96207C45.7382 8.8772 47.0575 10.3759 48.0499 12.4798C48.7463 14.9984 48.6896 17.1705 47.9085 19.0127C47.1276 20.8545 45.6091 22.3987 43.3212 23.6364C41.0123 24.3826 38.9569 24.4415 37.1428 23.8368C35.3289 23.2322 33.7288 21.9549 32.3469 19.979C31.2807 17.6424 30.9907 15.514 31.4477 13.5828C31.9048 11.6512 33.1168 9.88462 35.1147 8.28618C36.1031 7.73273 37.1143 7.28648 38.1483 6.947ZM54.5306 30.3678C57.1558 27.7209 60.3061 26.2207 63.9904 25.8617C67.3643 25.9731 70.1737 26.8432 72.4326 28.4588C74.6909 30.074 76.4171 32.4473 77.6032 35.5961C78.4173 39.3867 78.1619 42.6406 76.8623 45.3742C75.5628 48.1077 73.2053 50.3503 69.7613 52.0927C66.3078 53.2316 63.2045 53.349 60.4401 52.4674C57.6753 51.5857 55.223 49.6962 53.0867 46.7742C51.5046 43.858 50.8423 41.0416 51.0815 38.3198C51.3209 35.5972 52.4643 32.9472 54.5306 30.3678Z" fill="#242464" stroke="#242464" stroke-width="0.5"/>
<path opacity="0.899" fill-rule="evenodd" clip-rule="evenodd" d="M64.1661 28.7324C64.6921 28.6507 65.151 28.7732 65.543 29.0996C65.6346 30.0769 65.6653 31.056 65.6348 32.0371C67.0437 32.0066 68.4513 32.0371 69.8575 32.1289C70.0256 32.1976 70.1788 32.2894 70.3165 32.4043C70.496 32.9861 70.4042 33.5064 70.0411 33.9648C67.1524 33.9733 64.2762 34.0957 61.4122 34.332C60.2298 35.2008 60.0157 36.2717 60.7696 37.5449C61.0595 37.8278 61.3962 38.0421 61.7793 38.1875C64.0541 38.2025 66.3183 38.325 68.5723 38.5547C71.1314 39.9902 71.774 42.0404 70.5 44.7051C69.2612 46.2495 67.6395 46.8614 65.6348 46.541C65.6653 47.5221 65.6346 48.5012 65.543 49.4785C64.787 50.0462 64.1751 49.9237 63.7071 49.1113C63.6155 48.2567 63.5848 47.4 63.6153 46.541C62.2064 46.5715 60.7988 46.541 59.3926 46.4492C58.6582 45.8373 58.6582 45.2252 59.3926 44.6133C62.0854 44.5521 64.778 44.4908 67.4707 44.4297C69.4444 43.419 69.628 42.1338 68.0215 40.5742C65.8313 40.3407 63.6281 40.2184 61.4122 40.207C58.9641 39.4071 57.9544 37.7241 58.3829 35.1582C59.2619 32.7426 61.006 31.7022 63.6153 32.0371C63.5848 31.1781 63.6155 30.3214 63.7071 29.4668C63.8286 29.1943 63.9817 28.9496 64.1661 28.7324Z" fill="#242464"/>
<path opacity="0.893" d="M27.9881 52.9006L27.9641 52.9016L27.9407 52.9071C26.5728 53.2295 25.2642 53.7593 24.0156 54.4956L24.0155 54.4955L24.0099 54.499C22.2391 55.6072 20.4285 56.6486 18.5783 57.6229C18.2246 57.2981 17.9535 56.9084 17.7641 56.4512L17.718 56.3397L17.6019 56.3065C17.1286 56.1712 16.6526 56.1712 16.1793 56.3065L16.1498 56.3149L16.1233 56.3302C12.2825 58.5414 8.4567 60.7755 4.64599 63.033L4.55644 63.086L4.531 63.1869C4.37126 63.8206 4.43915 64.4333 4.73415 65.0137L4.73752 65.0203L4.74129 65.0268C9.44585 73.0587 14.1272 81.106 18.7855 89.168L18.836 89.2556L18.9332 89.2833C19.4064 89.4186 19.8826 89.4186 20.3558 89.2833L20.3851 89.275L20.4115 89.2598L31.6107 82.834L31.6524 82.8101L31.6823 82.7724C32.099 82.2463 32.2032 81.6396 32.0006 80.9829L31.9874 80.9404L31.9604 80.905C31.6655 80.5185 31.4533 80.118 31.321 79.7033C32.294 79.1211 33.2796 78.5587 34.2779 78.0159C41.8886 79.6658 49.5089 81.2811 57.1387 82.862L57.1473 82.8638L57.156 82.865C58.6935 83.0721 60.199 82.9467 61.67 82.4887L61.6964 82.4805L61.7204 82.4667L85.9495 68.5165C85.9504 68.516 85.9513 68.5155 85.9522 68.515C86.927 67.9842 87.7218 67.2527 88.3338 66.323L88.3407 66.3125L88.3465 66.3014C89.7843 63.5512 89.7214 60.8279 88.157 58.1644L88.1432 58.141L88.1248 58.1211C86.7267 56.6117 85.2063 55.7061 83.5627 55.4349C81.9192 55.1636 80.1846 55.5319 78.3678 56.5104L78.3677 56.5103L78.3615 56.5138C73.0357 59.5816 67.7245 62.6718 62.4276 65.7843C61.9416 63.0498 60.4075 61.1097 57.8402 59.9896L57.823 59.9821L57.805 59.9773L32.469 53.1843L32.4573 53.1812L32.4453 53.1792C30.9709 52.9338 29.485 52.841 27.9881 52.9006ZM32.7052 55.87L32.7059 55.8702C40.4701 57.9795 48.2423 60.0602 56.0224 62.1124C57.1927 62.438 58.0865 62.9805 58.7208 63.7301C59.35 64.4736 59.7388 65.4383 59.8748 66.6395C59.6234 68.276 59.029 69.4258 58.1226 70.1339C57.214 70.8437 55.9508 71.1419 54.2965 70.9875C49.9358 69.8135 45.5655 68.6827 41.1852 67.5953L41.133 67.5823L41.0801 67.592C40.5104 67.6958 40.0627 67.9133 39.8717 68.3166C39.6803 68.7207 39.7977 69.2028 40.0811 69.7049L40.1316 69.7945L40.2305 69.8225C44.7451 71.1042 49.2759 72.3288 53.8226 73.4961L53.8382 73.5001L53.8541 73.502C55.8082 73.7433 57.4953 73.4757 58.8988 72.6783C60.2829 71.8918 61.3664 70.6042 62.1585 68.8393C68.444 65.1709 74.7725 61.5808 81.1439 58.0694C82.5287 57.7905 83.6709 57.9144 84.5916 58.4102C85.5158 58.9078 86.2512 59.7986 86.7832 61.1177C87.0115 62.2149 86.9535 63.1802 86.6248 64.0235C86.295 64.8692 85.6852 65.6124 84.7775 66.25C76.5575 71.0011 68.3134 75.7032 60.0455 80.3566C59.2302 80.4689 58.4155 80.4671 57.6003 80.3514C49.7476 78.6829 41.8855 77.0616 34.0139 75.4873L33.9417 75.4729L33.8732 75.4998C32.5642 76.0154 31.3056 76.6509 30.0971 77.4059C26.5633 71.7055 23.1594 65.9124 19.8852 60.0269C21.7379 58.8385 23.6253 57.6906 25.5471 56.583C26.4863 56.1025 27.4404 55.7142 28.4097 55.4177C29.8687 55.333 31.3002 55.4837 32.7052 55.87ZM7.40852 64.4371C10.3855 62.6519 13.3577 60.8686 16.325 59.0872C16.3376 59.0883 16.3448 59.0913 16.3487 59.0933C16.3565 59.0972 16.375 59.1091 16.3982 59.1495C20.6177 66.5281 24.8598 73.8919 29.1249 81.241L20.1942 86.4068L7.40852 64.4371Z" fill="#242464" stroke="#242464" stroke-width="0.5"/>
</svg>
