<svg width="47" height="46" viewBox="0 0 47 46" fill="none" xmlns="http://www.w3.org/2000/svg">
<path opacity="0.981" fill-rule="evenodd" clip-rule="evenodd" d="M21.9602 1.39218C29.5873 0.948719 35.8596 3.61334 40.7773 9.38606C45.3429 15.4192 46.6004 22.0958 44.5497 29.4157C42.125 36.5708 37.3197 41.3162 30.1337 43.6519C22.718 45.6299 16.0115 44.2526 10.0143 39.5203C3.72508 33.8566 1.31494 26.8357 2.78391 18.4578C4.82356 10.1907 9.89832 4.75659 18.0082 2.15564C19.3214 1.81235 20.6387 1.55787 21.9602 1.39218ZM23.8464 4.26638C31.1565 4.53542 36.6504 7.79883 40.3282 14.0566C42.8935 19.1222 43.2229 24.3317 41.3162 29.6851C40.835 30.9772 40.1914 32.1747 39.3851 33.2779C32.8299 27.186 25.2551 25.4645 16.6609 28.1133C13.5539 29.2466 10.8294 30.9682 8.4874 33.2779C5.37013 28.5091 4.54679 23.3594 6.01738 17.829C8.06824 11.3471 12.3346 7.0807 18.8166 5.02984C20.478 4.58516 22.1547 4.33068 23.8464 4.26638Z" fill="#242464"/>
<path opacity="0.988" fill-rule="evenodd" clip-rule="evenodd" d="M22.6785 7.14059C27.1246 6.81709 30.2533 8.67334 32.0646 12.7094C33.3697 17.1478 32.1273 20.6658 28.3371 23.2631C26.3321 24.3757 24.2063 24.69 21.96 24.2062C18.2769 23.1728 16.0764 20.7776 15.3583 17.0207C14.9911 12.5724 16.8324 9.44373 20.8821 7.6346C21.4846 7.43934 22.0835 7.27466 22.6785 7.14059Z" fill="#242464"/>
</svg>
