<svg width="46" height="46" viewBox="0 0 46 46" fill="none" xmlns="http://www.w3.org/2000/svg">
<path opacity="0.996" fill-rule="evenodd" clip-rule="evenodd" d="M33.8167 2.82929C37.9954 2.47109 41.1839 4.05789 43.3824 7.58969C44.7465 10.3469 44.8662 13.1612 43.7417 16.0327C42.0068 19.5889 39.1476 21.4151 35.164 21.5116C30.1667 21.2821 27.0978 18.7373 25.9576 13.877C25.3597 8.97086 27.2908 5.4829 31.7509 3.41311C32.4392 3.17405 33.1277 2.97944 33.8167 2.82929Z" fill="#D9842A"/>
<path opacity="0.996" fill-rule="evenodd" clip-rule="evenodd" d="M1.75137 5.70349C3.15885 5.68852 4.56601 5.70349 5.97285 5.7484C6.63834 5.96471 7.10241 6.39884 7.36505 7.05077C7.71028 8.26576 8.05459 9.4783 8.39796 10.6884C13.7871 10.7183 19.1762 10.7483 24.5654 10.7783C24.1304 14.6985 25.4178 17.932 28.4276 20.4787C31.6437 22.9558 35.1766 23.5396 39.0262 22.2302C38.8612 23.8498 38.6665 25.4665 38.4424 27.0804C38.1363 28.635 37.2233 29.638 35.7029 30.0893C30.7022 30.1019 25.7023 30.1618 20.7031 30.2689C18.6537 30.386 16.6477 30.7452 14.6853 31.3468C12.6737 31.9874 10.6678 32.646 8.66742 33.3228C7.95834 33.7618 7.76373 34.3755 8.0836 35.1641C8.36579 35.6075 8.76997 35.832 9.29615 35.8377C17.8328 35.8386 26.3656 35.8984 34.8945 36.0173C36.9063 36.8821 37.6697 38.3941 37.1849 40.5532C36.4177 42.5469 34.9657 43.3702 32.8287 43.0232C31.1116 42.4274 30.1835 41.2148 30.0443 39.3856C30.0969 38.6436 30.3365 37.97 30.7629 37.3646C26.5115 37.3047 22.26 37.3047 18.0086 37.3646C18.6819 38.446 18.8167 39.5987 18.4128 40.8227C17.5613 42.6333 16.1392 43.3668 14.1464 43.0232C12.4301 42.428 11.5019 41.2154 11.362 39.3856C11.389 38.6324 11.6285 37.9588 12.0805 37.3646C10.7871 37.36 9.49959 37.3001 8.21833 37.185C6.65454 36.4068 6.10066 35.1642 6.55668 33.4575C6.92755 32.5301 7.60119 31.9463 8.5776 31.706C9.7386 31.304 10.9062 30.9298 12.0805 30.5833C10.0581 22.9127 8.0072 15.2481 5.92794 7.58968C5.80415 7.35541 5.60954 7.22068 5.34412 7.1855C4.14654 7.15556 2.94895 7.12561 1.75137 7.09568C1.48048 6.95838 1.36071 6.73383 1.39209 6.42204C1.37255 6.10176 1.4923 5.86224 1.75137 5.70349Z" fill="#242464"/>
</svg>
