<svg width="42" height="42" viewBox="0 0 42 42" fill="none" xmlns="http://www.w3.org/2000/svg">
<path d="M19.3946 6.74476C14.9436 2.34066 7.74254 2.31925 3.3107 6.70431C-1.12114 11.0894 -1.09951 18.2144 3.35158 22.6185L19.8284 38.9214C20.5119 39.5976 21.6199 39.5976 22.3034 38.9214L38.6946 22.7127C43.1161 18.3134 43.1021 11.2084 38.6503 6.80352C34.1912 2.39152 26.9868 2.37012 22.5471 6.76302L20.9816 8.31495L19.3946 6.74476ZM36.2127 20.2707L21.0659 35.2481L5.82654 20.1696C2.73902 17.1147 2.72405 12.1824 5.78566 9.15315C8.84728 6.12385 13.8322 6.13867 16.9197 9.1936L19.7525 11.9965C20.4476 12.6843 21.5788 12.6708 22.2569 11.9667L25.022 9.21185C28.0916 6.17472 33.0798 6.18954 36.1753 9.25236C39.2636 12.3081 39.2733 17.2256 36.2127 20.2707Z" fill="#282867"/>
</svg>
